<?xml version="1.0" encoding="UTF-8" standalone="no"?>
<!DOCTYPE svg PUBLIC "-//W3C//DTD SVG 1.1//EN"
 "http://www.w3.org/Graphics/SVG/1.1/DTD/svg11.dtd">
<!-- Generated by graphviz version 2.34.0 (20131116.1327)
 -->
<!-- Title: G Pages: 1 -->
<svg width="948pt" height="280pt"
 viewBox="0.00 0.00 947.80 280.44" xmlns="http://www.w3.org/2000/svg" xmlns:xlink="http://www.w3.org/1999/xlink">
<g id="graph0" class="graph" transform="scale(1 1) rotate(0) translate(4 276.439)">
<title>G</title>
<polygon fill="white" stroke="white" points="-4,4 -4,-276.439 943.799,-276.439 943.799,4 -4,4"/>
<!-- e3b042 -->
<g id="node1" class="node"><title>e3b042</title>
<ellipse fill="palegreen" stroke="black" cx="444.731" cy="-261.639" rx="10.8" ry="10.8"/>
</g>
<!-- 1e14c8 -->
<g id="node2" class="node"><title>1e14c8</title>
<ellipse fill="palegreen" stroke="black" cx="457.118" cy="-187.724" rx="10.8" ry="10.8"/>
</g>
<!-- e3b042&#45;&#45;1e14c8 -->
<g id="edge1" class="edge"><title>e3b042&#45;&#45;1e14c8</title>
<path fill="none" stroke="black" d="M446.559,-250.732C448.901,-236.757 452.937,-212.671 455.283,-198.675"/>
</g>
<!-- 3babe8 -->
<g id="node3" class="node"><title>3babe8</title>
<ellipse fill="palegreen" stroke="black" cx="563.188" cy="-202.614" rx="10.8" ry="10.8"/>
</g>
<!-- 1e14c8&#45;&#45;3babe8 -->
<g id="edge2" class="edge"><title>1e14c8&#45;&#45;3babe8</title>
<path fill="none" stroke="black" d="M468.07,-189.261C488.501,-192.129 532.189,-198.262 552.453,-201.107"/>
</g>
<!-- 78beee -->
<g id="node10" class="node"><title>78beee</title>
<ellipse fill="palegreen" stroke="black" cx="367.797" cy="-120.638" rx="10.8" ry="10.8"/>
</g>
<!-- 1e14c8&#45;&#45;78beee -->
<g id="edge9" class="edge"><title>1e14c8&#45;&#45;78beee</title>
<path fill="none" stroke="black" d="M448.227,-181.046C431.106,-168.187 393.745,-140.127 376.652,-127.289"/>
</g>
<!-- 89aff3 -->
<g id="node4" class="node"><title>89aff3</title>
<ellipse fill="palegreen" stroke="black" cx="660.426" cy="-185.221" rx="10.8" ry="10.8"/>
</g>
<!-- 3babe8&#45;&#45;89aff3 -->
<g id="edge3" class="edge"><title>3babe8&#45;&#45;89aff3</title>
<path fill="none" stroke="black" d="M573.965,-200.686C592.657,-197.343 630.875,-190.507 649.6,-187.157"/>
</g>
<!-- 8cd28f -->
<g id="node5" class="node"><title>8cd28f</title>
<ellipse fill="palegreen" stroke="black" cx="733.254" cy="-125.014" rx="10.8" ry="10.8"/>
</g>
<!-- 89aff3&#45;&#45;8cd28f -->
<g id="edge4" class="edge"><title>89aff3&#45;&#45;8cd28f</title>
<path fill="none" stroke="black" d="M668.78,-178.314C682.679,-166.824 710.417,-143.894 724.546,-132.213"/>
</g>
<!-- 45b67f -->
<g id="node6" class="node"><title>45b67f</title>
<ellipse fill="palegreen" stroke="black" cx="780.94" cy="-47.7972" rx="10.8" ry="10.8"/>
</g>
<!-- 8cd28f&#45;&#45;45b67f -->
<g id="edge5" class="edge"><title>8cd28f&#45;&#45;45b67f</title>
<path fill="none" stroke="black" d="M739.102,-115.545C748.254,-100.725 765.863,-72.2104 775.045,-57.3429"/>
</g>
<!-- 66996f -->
<g id="node7" class="node"><title>66996f</title>
<ellipse fill="palegreen" stroke="black" cx="846.069" cy="-19.1108" rx="10.8" ry="10.8"/>
</g>
<!-- 45b67f&#45;&#45;66996f -->
<g id="edge6" class="edge"><title>45b67f&#45;&#45;66996f</title>
<path fill="none" stroke="black" d="M790.832,-43.4403C803.073,-38.0486 823.8,-28.9193 836.085,-23.5087"/>
</g>
<!-- 3f2d44 -->
<g id="node8" class="node"><title>3f2d44</title>
<ellipse fill="palegreen" stroke="black" cx="894.127" cy="-71.2819" rx="10.8" ry="10.8"/>
</g>
<!-- 66996f&#45;&#45;3f2d44 -->
<g id="edge7" class="edge"><title>66996f&#45;&#45;3f2d44</title>
<path fill="none" stroke="black" d="M853.578,-27.2626C862.554,-37.0064 877.49,-53.2209 886.512,-63.0153"/>
</g>
<!-- 0x7fe20ac039b0 -->
<g id="node9" class="node"><title>0x7fe20ac039b0</title>
<polygon fill="red" stroke="black" points="939.799,-143.414 914.022,-143.414 910.799,-140.192 910.799,-107.414 936.577,-107.414 939.799,-110.636 939.799,-143.414"/>
<polyline fill="none" stroke="black" points="936.577,-140.192 910.799,-140.192 "/>
<polyline fill="none" stroke="black" points="936.577,-140.192 936.577,-107.414 "/>
<polyline fill="none" stroke="black" points="936.577,-140.192 939.799,-143.414 "/>
<text text-anchor="start" x="918.799" y="-124.514" font-family="Helvetica,sans-Serif" font-size="8.00">c</text>
<text text-anchor="start" x="922.799" y="-124.514" font-family="Helvetica,sans-Serif" baseline-shift="super" font-size="8.00">(0)</text>
</g>
<!-- 3f2d44&#45;&#45;0x7fe20ac039b0 -->
<g id="edge8" class="edge"><title>3f2d44&#45;&#45;0x7fe20ac039b0</title>
<path fill="none" stroke="black" d="M899.557,-80.711C903.743,-87.981 909.661,-98.2578 914.768,-107.125"/>
</g>
<!-- 8d13ff -->
<g id="node11" class="node"><title>8d13ff</title>
<ellipse fill="palegreen" stroke="black" cx="284.971" cy="-55.3576" rx="10.8" ry="10.8"/>
</g>
<!-- 78beee&#45;&#45;8d13ff -->
<g id="edge10" class="edge"><title>78beee&#45;&#45;8d13ff</title>
<path fill="none" stroke="black" d="M359.245,-113.898C343.374,-101.389 309.53,-74.7144 293.6,-62.159"/>
</g>
<!-- 007146 -->
<g id="node12" class="node"><title>007146</title>
<ellipse fill="palegreen" stroke="black" cx="200.258" cy="-10.8" rx="10.8" ry="10.8"/>
</g>
<!-- 8d13ff&#45;&#45;007146 -->
<g id="edge11" class="edge"><title>8d13ff&#45;&#45;007146</title>
<path fill="none" stroke="black" d="M275.253,-50.2462C258.912,-41.6512 226.127,-24.4065 209.863,-15.8517"/>
</g>
<!-- 5fbe73 -->
<g id="node13" class="node"><title>5fbe73</title>
<ellipse fill="palegreen" stroke="black" cx="114.786" cy="-12.2619" rx="10.8" ry="10.8"/>
</g>
<!-- 007146&#45;&#45;5fbe73 -->
<g id="edge12" class="edge"><title>007146&#45;&#45;5fbe73</title>
<path fill="none" stroke="black" d="M189.433,-10.9852C173.082,-11.2648 142.251,-11.7922 125.794,-12.0737"/>
</g>
<!-- c4372d -->
<g id="node14" class="node"><title>c4372d</title>
<ellipse fill="palegreen" stroke="black" cx="45.0046" cy="-56.988" rx="10.8" ry="10.8"/>
</g>
<!-- 5fbe73&#45;&#45;c4372d -->
<g id="edge13" class="edge"><title>5fbe73&#45;&#45;c4372d</title>
<path fill="none" stroke="black" d="M105.664,-18.1091C92.364,-26.6335 67.7781,-42.3916 54.3523,-50.9967"/>
</g>
<!-- be8df2 -->
<g id="node15" class="node"><title>be8df2</title>
<ellipse fill="palegreen" stroke="black" cx="14.7425" cy="-131.664" rx="10.8" ry="10.8"/>
</g>
<!-- c4372d&#45;&#45;be8df2 -->
<g id="edge14" class="edge"><title>c4372d&#45;&#45;be8df2</title>
<path fill="none" stroke="black" d="M40.9233,-67.0591C35.1799,-81.2319 24.766,-106.929 18.9533,-121.273"/>
</g>
<!-- 0x7fe20ac03ad0 -->
<g id="node16" class="node"><title>0x7fe20ac03ad0</title>
<polygon fill="red" stroke="black" points="29,-222.269 3.22222,-222.269 2.84217e-14,-219.046 2.84217e-14,-186.269 25.7778,-186.269 29,-189.491 29,-222.269"/>
<polyline fill="none" stroke="black" points="25.7778,-219.046 2.84217e-14,-219.046 "/>
<polyline fill="none" stroke="black" points="25.7778,-219.046 25.7778,-186.269 "/>
<polyline fill="none" stroke="black" points="25.7778,-219.046 29,-222.269 "/>
<text text-anchor="start" x="8" y="-203.369" font-family="Helvetica,sans-Serif" font-size="8.00">c</text>
<text text-anchor="start" x="12" y="-203.369" font-family="Helvetica,sans-Serif" baseline-shift="super" font-size="8.00">(1)</text>
</g>
<!-- be8df2&#45;&#45;0x7fe20ac03ad0 -->
<g id="edge15" class="edge"><title>be8df2&#45;&#45;0x7fe20ac03ad0</title>
<path fill="none" stroke="black" d="M14.7057,-142.691C14.6672,-154.195 14.6064,-172.422 14.5608,-186.066"/>
</g>
</g>
</svg>
