<?xml version="1.0" encoding="UTF-8" standalone="no"?>
<!DOCTYPE svg PUBLIC "-//W3C//DTD SVG 1.1//EN"
 "http://www.w3.org/Graphics/SVG/1.1/DTD/svg11.dtd">
<!-- Generated by graphviz version 2.34.0 (20130907.0228)
 -->
<!-- Title: G Pages: 1 -->
<svg width="782pt" height="98pt"
 viewBox="0.00 0.00 782.00 98.00" xmlns="http://www.w3.org/2000/svg" xmlns:xlink="http://www.w3.org/1999/xlink">
<g id="graph0" class="graph" transform="scale(1 1) rotate(0) translate(4 94)">
<title>G</title>
<polygon fill="white" stroke="white" points="-4,4 -4,-94 778,-94 778,4 -4,4"/>
<!-- e3b042 -->
<g id="node1" class="node"><title>e3b042</title>
<ellipse fill="palegreen" stroke="black" cx="27" cy="-45" rx="27" ry="18"/>
<text text-anchor="start" x="16.5" y="-40.4" font-family="Times,serif" font-size="14.00">x</text>
<text text-anchor="start" x="23.5" y="-40.4" font-family="Times,serif" baseline-shift="sub" font-size="14.00">15</text>
</g>
<!-- 1e14c8 -->
<g id="node2" class="node"><title>1e14c8</title>
<ellipse fill="palegreen" stroke="black" cx="117" cy="-45" rx="27" ry="18"/>
<text text-anchor="start" x="110" y="-40.4" font-family="Times,serif" font-size="14.00">x</text>
<text text-anchor="start" x="117" y="-40.4" font-family="Times,serif" baseline-shift="sub" font-size="14.00">8</text>
</g>
<!-- e3b042&#45;&gt;1e14c8 -->
<g id="edge1" class="edge"><title>e3b042&#45;&gt;1e14c8</title>
<path fill="none" stroke="black" d="M54.4029,-45C62.3932,-45 71.3106,-45 79.8241,-45"/>
<polygon fill="black" stroke="black" points="79.919,-48.5001 89.919,-45 79.919,-41.5001 79.919,-48.5001"/>
<text text-anchor="middle" x="71.7928" y="-47.8524" font-family="Times,serif" font-size="14.00">1</text>
</g>
<!-- 3babe8 -->
<g id="node3" class="node"><title>3babe8</title>
<ellipse fill="palegreen" stroke="black" cx="207" cy="-72" rx="27" ry="18"/>
<text text-anchor="start" x="196.5" y="-67.4" font-family="Times,serif" font-size="14.00">x</text>
<text text-anchor="start" x="203.5" y="-67.4" font-family="Times,serif" baseline-shift="sub" font-size="14.00">13</text>
</g>
<!-- 1e14c8&#45;&gt;3babe8 -->
<g id="edge2" class="edge"><title>1e14c8&#45;&gt;3babe8</title>
<path fill="none" stroke="black" d="M142.046,-52.3779C151.435,-55.2586 162.362,-58.6112 172.5,-61.7215"/>
<polygon fill="black" stroke="black" points="171.701,-65.1373 182.287,-64.7245 173.754,-58.4452 171.701,-65.1373"/>
<text text-anchor="middle" x="162.479" y="-61.8883" font-family="Times,serif" font-size="14.00">1</text>
</g>
<!-- 78beee -->
<g id="node10" class="node"><title>78beee</title>
<ellipse fill="palegreen" stroke="black" cx="207" cy="-18" rx="27" ry="18"/>
<text text-anchor="start" x="200" y="-13.4" font-family="Times,serif" font-size="14.00">x</text>
<text text-anchor="start" x="207" y="-13.4" font-family="Times,serif" baseline-shift="sub" font-size="14.00">9</text>
</g>
<!-- 1e14c8&#45;&gt;78beee -->
<g id="edge9" class="edge"><title>1e14c8&#45;&gt;78beee</title>
<path fill="none" stroke="black" d="M142.046,-37.6221C151.435,-34.7414 162.362,-31.3888 172.5,-28.2785"/>
<polygon fill="black" stroke="black" points="173.754,-31.5548 182.287,-25.2755 171.701,-24.8627 173.754,-31.5548"/>
<text text-anchor="middle" x="167.438" y="-33.0728" font-family="Times,serif" font-size="14.00">0</text>
</g>
<!-- 89aff3 -->
<g id="node4" class="node"><title>89aff3</title>
<ellipse fill="palegreen" stroke="black" cx="297" cy="-72" rx="27" ry="18"/>
<text text-anchor="start" x="286.756" y="-67.4" font-family="Times,serif" font-size="14.00">x</text>
<text text-anchor="start" x="293.756" y="-67.4" font-family="Times,serif" baseline-shift="sub" font-size="14.00">11</text>
</g>
<!-- 3babe8&#45;&gt;89aff3 -->
<g id="edge3" class="edge"><title>3babe8&#45;&gt;89aff3</title>
<path fill="none" stroke="black" d="M234.403,-72C242.393,-72 251.311,-72 259.824,-72"/>
<polygon fill="black" stroke="black" points="259.919,-75.5001 269.919,-72 259.919,-68.5001 259.919,-75.5001"/>
<text text-anchor="middle" x="251.793" y="-74.8524" font-family="Times,serif" font-size="14.00">1</text>
</g>
<!-- 8cd28f -->
<g id="node5" class="node"><title>8cd28f</title>
<ellipse fill="palegreen" stroke="black" cx="387" cy="-72" rx="27" ry="18"/>
<text text-anchor="start" x="376.5" y="-67.4" font-family="Times,serif" font-size="14.00">x</text>
<text text-anchor="start" x="383.5" y="-67.4" font-family="Times,serif" baseline-shift="sub" font-size="14.00">14</text>
</g>
<!-- 89aff3&#45;&gt;8cd28f -->
<g id="edge4" class="edge"><title>89aff3&#45;&gt;8cd28f</title>
<path fill="none" stroke="black" d="M324.403,-72C332.393,-72 341.311,-72 349.824,-72"/>
<polygon fill="black" stroke="black" points="349.919,-75.5001 359.919,-72 349.919,-68.5001 349.919,-75.5001"/>
<text text-anchor="middle" x="341.793" y="-74.8524" font-family="Times,serif" font-size="14.00">1</text>
</g>
<!-- 45b67f -->
<g id="node6" class="node"><title>45b67f</title>
<ellipse fill="palegreen" stroke="black" cx="477" cy="-72" rx="27" ry="18"/>
<text text-anchor="start" x="470" y="-67.4" font-family="Times,serif" font-size="14.00">x</text>
<text text-anchor="start" x="477" y="-67.4" font-family="Times,serif" baseline-shift="sub" font-size="14.00">9</text>
</g>
<!-- 8cd28f&#45;&gt;45b67f -->
<g id="edge5" class="edge"><title>8cd28f&#45;&gt;45b67f</title>
<path fill="none" stroke="black" d="M414.403,-72C422.393,-72 431.311,-72 439.824,-72"/>
<polygon fill="black" stroke="black" points="439.919,-75.5001 449.919,-72 439.919,-68.5001 439.919,-75.5001"/>
<text text-anchor="middle" x="431.793" y="-74.8524" font-family="Times,serif" font-size="14.00">1</text>
</g>
<!-- 66996f -->
<g id="node7" class="node"><title>66996f</title>
<ellipse fill="palegreen" stroke="black" cx="567" cy="-72" rx="27" ry="18"/>
<text text-anchor="start" x="556.5" y="-67.4" font-family="Times,serif" font-size="14.00">x</text>
<text text-anchor="start" x="563.5" y="-67.4" font-family="Times,serif" baseline-shift="sub" font-size="14.00">10</text>
</g>
<!-- 45b67f&#45;&gt;66996f -->
<g id="edge6" class="edge"><title>45b67f&#45;&gt;66996f</title>
<path fill="none" stroke="black" d="M504.403,-72C512.393,-72 521.311,-72 529.824,-72"/>
<polygon fill="black" stroke="black" points="529.919,-75.5001 539.919,-72 529.919,-68.5001 529.919,-75.5001"/>
<text text-anchor="middle" x="521.793" y="-74.8524" font-family="Times,serif" font-size="14.00">1</text>
</g>
<!-- 3f2d44 -->
<g id="node8" class="node"><title>3f2d44</title>
<ellipse fill="palegreen" stroke="black" cx="657" cy="-72" rx="27" ry="18"/>
<text text-anchor="start" x="646.5" y="-67.4" font-family="Times,serif" font-size="14.00">x</text>
<text text-anchor="start" x="653.5" y="-67.4" font-family="Times,serif" baseline-shift="sub" font-size="14.00">12</text>
</g>
<!-- 66996f&#45;&gt;3f2d44 -->
<g id="edge7" class="edge"><title>66996f&#45;&gt;3f2d44</title>
<path fill="none" stroke="black" d="M594.403,-72C602.393,-72 611.311,-72 619.824,-72"/>
<polygon fill="black" stroke="black" points="619.919,-75.5001 629.919,-72 619.919,-68.5001 619.919,-75.5001"/>
<text text-anchor="middle" x="611.793" y="-74.8524" font-family="Times,serif" font-size="14.00">1</text>
</g>
<!-- 0x7fa519c039b0 -->
<g id="node9" class="node"><title>0x7fa519c039b0</title>
<polygon fill="red" stroke="black" points="774,-90 720,-90 720,-54 774,-54 774,-90"/>
<text text-anchor="start" x="735.731" y="-67.4" font-family="Times,serif" font-size="14.00">c</text>
<text text-anchor="start" x="741.945" y="-67.4" font-family="Times,serif" baseline-shift="super" font-size="14.00">(0)</text>
</g>
<!-- 3f2d44&#45;&gt;0x7fa519c039b0 -->
<g id="edge8" class="edge"><title>3f2d44&#45;&gt;0x7fa519c039b0</title>
<path fill="none" stroke="black" d="M684.403,-72C692.393,-72 701.311,-72 709.824,-72"/>
<polygon fill="black" stroke="black" points="709.919,-75.5001 719.919,-72 709.919,-68.5001 709.919,-75.5001"/>
<text text-anchor="middle" x="701.793" y="-74.8524" font-family="Times,serif" font-size="14.00">1</text>
</g>
<!-- 8d13ff -->
<g id="node11" class="node"><title>8d13ff</title>
<ellipse fill="palegreen" stroke="black" cx="297" cy="-18" rx="27" ry="18"/>
<text text-anchor="start" x="286.5" y="-13.4" font-family="Times,serif" font-size="14.00">x</text>
<text text-anchor="start" x="293.5" y="-13.4" font-family="Times,serif" baseline-shift="sub" font-size="14.00">12</text>
</g>
<!-- 78beee&#45;&gt;8d13ff -->
<g id="edge10" class="edge"><title>78beee&#45;&gt;8d13ff</title>
<path fill="none" stroke="black" d="M234.403,-18C242.393,-18 251.311,-18 259.824,-18"/>
<polygon fill="black" stroke="black" points="259.919,-21.5001 269.919,-18 259.919,-14.5001 259.919,-21.5001"/>
<text text-anchor="middle" x="251.793" y="-20.8524" font-family="Times,serif" font-size="14.00">0</text>
</g>
<!-- 007146 -->
<g id="node12" class="node"><title>007146</title>
<ellipse fill="palegreen" stroke="black" cx="387" cy="-18" rx="27" ry="18"/>
<text text-anchor="start" x="376.5" y="-13.4" font-family="Times,serif" font-size="14.00">x</text>
<text text-anchor="start" x="383.5" y="-13.4" font-family="Times,serif" baseline-shift="sub" font-size="14.00">13</text>
</g>
<!-- 8d13ff&#45;&gt;007146 -->
<g id="edge11" class="edge"><title>8d13ff&#45;&gt;007146</title>
<path fill="none" stroke="black" d="M324.403,-18C332.393,-18 341.311,-18 349.824,-18"/>
<polygon fill="black" stroke="black" points="349.919,-21.5001 359.919,-18 349.919,-14.5001 349.919,-21.5001"/>
<text text-anchor="middle" x="341.793" y="-20.8524" font-family="Times,serif" font-size="14.00">1</text>
</g>
<!-- 5fbe73 -->
<g id="node13" class="node"><title>5fbe73</title>
<ellipse fill="palegreen" stroke="black" cx="477" cy="-18" rx="27" ry="18"/>
<text text-anchor="start" x="466.5" y="-13.4" font-family="Times,serif" font-size="14.00">x</text>
<text text-anchor="start" x="473.5" y="-13.4" font-family="Times,serif" baseline-shift="sub" font-size="14.00">10</text>
</g>
<!-- 007146&#45;&gt;5fbe73 -->
<g id="edge12" class="edge"><title>007146&#45;&gt;5fbe73</title>
<path fill="none" stroke="black" d="M414.403,-18C422.393,-18 431.311,-18 439.824,-18"/>
<polygon fill="black" stroke="black" points="439.919,-21.5001 449.919,-18 439.919,-14.5001 439.919,-21.5001"/>
<text text-anchor="middle" x="431.793" y="-20.8524" font-family="Times,serif" font-size="14.00">1</text>
</g>
<!-- c4372d -->
<g id="node14" class="node"><title>c4372d</title>
<ellipse fill="palegreen" stroke="black" cx="567" cy="-18" rx="27" ry="18"/>
<text text-anchor="start" x="556.5" y="-13.4" font-family="Times,serif" font-size="14.00">x</text>
<text text-anchor="start" x="563.5" y="-13.4" font-family="Times,serif" baseline-shift="sub" font-size="14.00">14</text>
</g>
<!-- 5fbe73&#45;&gt;c4372d -->
<g id="edge13" class="edge"><title>5fbe73&#45;&gt;c4372d</title>
<path fill="none" stroke="black" d="M504.403,-18C512.393,-18 521.311,-18 529.824,-18"/>
<polygon fill="black" stroke="black" points="529.919,-21.5001 539.919,-18 529.919,-14.5001 529.919,-21.5001"/>
<text text-anchor="middle" x="521.793" y="-20.8524" font-family="Times,serif" font-size="14.00">0</text>
</g>
<!-- be8df2 -->
<g id="node15" class="node"><title>be8df2</title>
<ellipse fill="palegreen" stroke="black" cx="657" cy="-18" rx="27" ry="18"/>
<text text-anchor="start" x="646.756" y="-13.4" font-family="Times,serif" font-size="14.00">x</text>
<text text-anchor="start" x="653.756" y="-13.4" font-family="Times,serif" baseline-shift="sub" font-size="14.00">11</text>
</g>
<!-- c4372d&#45;&gt;be8df2 -->
<g id="edge14" class="edge"><title>c4372d&#45;&gt;be8df2</title>
<path fill="none" stroke="black" d="M594.403,-18C602.393,-18 611.311,-18 619.824,-18"/>
<polygon fill="black" stroke="black" points="619.919,-21.5001 629.919,-18 619.919,-14.5001 619.919,-21.5001"/>
<text text-anchor="middle" x="611.793" y="-20.8524" font-family="Times,serif" font-size="14.00">1</text>
</g>
<!-- 0x7fa519c03ad0 -->
<g id="node16" class="node"><title>0x7fa519c03ad0</title>
<polygon fill="red" stroke="black" points="774,-36 720,-36 720,-0 774,-0 774,-36"/>
<text text-anchor="start" x="735.731" y="-13.4" font-family="Times,serif" font-size="14.00">c</text>
<text text-anchor="start" x="741.945" y="-13.4" font-family="Times,serif" baseline-shift="super" font-size="14.00">(1)</text>
</g>
<!-- be8df2&#45;&gt;0x7fa519c03ad0 -->
<g id="edge15" class="edge"><title>be8df2&#45;&gt;0x7fa519c03ad0</title>
<path fill="none" stroke="black" d="M684.403,-18C692.393,-18 701.311,-18 709.824,-18"/>
<polygon fill="black" stroke="black" points="709.919,-21.5001 719.919,-18 709.919,-14.5001 709.919,-21.5001"/>
<text text-anchor="middle" x="701.793" y="-20.8524" font-family="Times,serif" font-size="14.00">1</text>
</g>
</g>
</svg>
